# xmcd
#
# Track frame offsets:
#	150
#	17490
#	38032
#	52410
#	67673
#	84208
#	100834
#	117505
#	134694
#	151413
#	166826
#	182742
#	196968
#	210109
#	222298
#	237341
#	253170
#	269844
#
# Disc length: 3809 seconds
#
# Revision: 1
# Processed by: cddbd v1.5.2PL0 Copyright (c) Steve Scherf et al.
# Submitted via: audiograbber 1.83.01
#
DISCID=fd0edf12
DTITLE=Lucy Malheur - I Can Wait
DYEAR=2013
DGENRE=Country
TTITLE0=Micky's Marker
TTITLE1=Southern Comfort On My Mind (Unplugged)
TTITLE2=Needle In A Haystack
TTITLE3=I Can Wait
TTITLE4=My Old Home
TTITLE5=I Believe
TTITLE6=Short, Fat And Ugly
TTITLE7=A Shoulder To Cry On
TTITLE8=Sunny Saturday
TTITLE9=What A Fool I've Been
TTITLE10=Sunday In Badwater City
TTITLE11=Barrister Blues
TTITLE12=No More Rain
TTITLE13=Braggartsville
TTITLE14=Wanted
TTITLE15=I Am A Stranger
TTITLE16=Blame It On The Change
TTITLE17=Mister Albert Lee
EXTD=
EXTT0=
EXTT1=
EXTT2=
EXTT3=
EXTT4=
EXTT5=
EXTT6=
EXTT7=
EXTT8=
EXTT9=
EXTT10=
EXTT11=
EXTT12=
EXTT13=
EXTT14=
EXTT15=
EXTT16=
EXTT17=
PLAYORDER=
